/* XPM */
static char * 2_48_xpm[] = {
"48 48 51 1",
" 	c #383838",
".	c #EC0000",
"+	c #D40000",
"@	c #A40000",
"#	c #484848",
"$	c #545454",
"%	c #E00000",
"&	c #C80000",
"*	c #BC0000",
"=	c #B00000",
"-	c #880000",
";	c #640000",
">	c #7C0000",
",	c #980000",
"'	c #700000",
")	c #FCF400",
"!	c #2C2C2C",
"~	c #E4D800",
"{	c #848400",
"]	c #B4B4B4",
"^	c #CCC400",
"/	c #706C00",
"(	c #7C7C7C",
"_	c #989898",
":	c #707070",
"<	c #A86840",
"[	c #400000",
"}	c #FC0000",
"|	c #C0C0C0",
"1	c #A8A8A8",
"2	c #FC2020",
"3	c #D0D0D0",
"4	c #580058",
"5	c #8C8C8C",
"6	c #646464",
"7	c #600064",
"8	c #202020",
"9	c #500050",
"0	c #B45400",
"a	c #CC6000",
"b	c #480048",
"c	c #FC8820",
"d	c #580000",
"e	c #6C0070",
"f	c #840084",
"g	c #400040",
"h	c #4C0000",
"i	c #9C009C",
"j	c #303030",
"k	c #404040",
"l	c #744C28",
"                                                ",
" .+++++++@#$.++++++++++++++@ $...%%%%++++&&&**@#",
"#&==-@+&@;#$.-*--*>,*,>*>&@'# +&=&=&'>&=-=@&,&)!",
"~{]]]]]]]]]]]]]]]]]]]]]]]]]]]]]]]]]]]]]]]]]]]]^/",
"#@(((______________________________________:((<!",
"#>_(@[[''''''''''''''''''''''''''''''@=}([[(|:[!",
"#@1(|_:(1|||]]]]]]]]]]]]]]]]]]]]]]]]||||[(:2(:[!",
"#!31_1|((_$4:33|]]]]]]]]]]]]]]]]]|567_11_13[(_8!",
"$ 3]:_]_((944(13|||]]9$9990a]]]||5749___13|$51!!",
".+]3(_1|_:#b944(]]]]]9999900c]]567999___||1[_1d+",
"--]31_56e7:6#bbb4445]]99995]677f99b#:e771_('1]d,",
"'@]]]_5b7e4#6 bbb444]]9999]]774ebb#6#77e_5('1]d>",
"@-]]|1_bb7774$ gbbb$]]9999]]bbbbb #b97ee5(5'1]d>",
"';]]3|]6#b77e4eggb5:]999999]b5bgb4b47ee$(55']]d'",
"[h]]336:$$4774f9gb99]]9999]]bbbb4e477$(6#6_']]d[",
"!!]]]34b#$$#7e4f99bb(699996(bbbbe477$(6#gb_']]8!",
"$.|||]799bggb4i44bb99999999bbbb44i449bggg41']]d!",
"$-333|449bgggbf4499999999999b9944i449bggb4_>]][!",
" =|||_:799ggbbe499999$6::$$994444f49bgggb:_>]][!",
"#=]]]946::6$#jb9f4999(eeei(9944444$#kk#$#7e,||[!",
"$'11199444b9bb9b4fe99$eeee$94ef444bbbgbb47e,33[!",
"#@111994449b99b999999(eeei(9949449bbbbb9477,||[!",
"# 111994949999$999$99(e#e$(99$499$bbbbb9779>]]8!",
"$$1116999999#9999$999$($$($994$9b9:#bb99746']]!!",
"**]]]_6999::9999:99999$((99949999bb9:#9946_']]d*",
"@-]]]]_:9999999:9999999999999999:bb9b444___d__d'",
"-@]]]]99999999:999::999999999:999:9b9444995h55d'",
"@>]]]]9999999:9996_999999999:_699999944499_d__d-",
"'-]]]]_99999:999_999999999999999999:94949_1;11d'",
"[h]]]]]9999:999999999999999999999999:994:]];]]d[",
"!!|||||:99:99999999999999999999_99999999]]]']]8!",
" +|||||]]]__99_]]:999999999999:]]_99_]]]]]|-||d!",
"$@]]]]]]]]00(]]]099999999999999(]]](0(]]|||-||[!",
"#@]]]]]]]]0000000ll9:]9999]:9ll0000000|||33,33[!",
" @]]]]]]]]00000000]]99999999]]00000005]]]]|-||[!",
"$@11111]]]ll50l]l0]999999999(]05]l05l0]]]]]']][!",
" @1111111](5]l]]]($9999999999$(]]]0]5l]]]]]']][!",
" !]]_]]]]]]]]0]9999999999(9999999]5]]]]]]]]']]8!",
"$$]](]]]]]]]]]](99996]9999]6999$(]]]]]]]]]]']]!!",
"++]]'(_]]]]]]]]]($96](9999(]99$]]]]]]]]]]_((]]d*",
"@>d(]]_'''(_]]]]]]]]]699996]]]]]]]]]_'''5_]](ddh",
"@ddd(]]]]_'''_]]]]]]]]9996]]]]]]]](''(_]]]]$dd'-",
">dddd$(]]]]_(''(]]]]]]699]]]]]]_(''(_]]]($dddd'@",
";>>;,;dddd$(]]]]('''(_]]]]_('''_]]]](dddddd@'d@h",
">d@;-;>@ddddd$(]]]](''(__'''_]]]]([!!ddd@d@@'@@'",
"hhhhhhhhhhhh[88!(]]]]_'''(_]]](hhh[8!d[[hhhhhhhh",
"  $  ####$   !!!!!8888(]]$!8888!!!!!! #####k k##",
"$$$$$$$$$$$$$$#  !!888888888888!  ##$$$$$$$$$$$$"};
