/* XPM */
static char * 3_48_xpm[] = {
"48 48 25 1",
" 	c #383838",
".	c #EC0000",
"+	c #D40000",
"@	c #A40000",
"#	c #484848",
"$	c #545454",
"%	c #E00000",
"&	c #C80000",
"*	c #BC0000",
"=	c #B00000",
"-	c #880000",
";	c #640000",
">	c #7C0000",
",	c #980000",
"'	c #700000",
")	c #2C2C2C",
"!	c #580000",
"~	c #400000",
"{	c #4C0000",
"]	c #202020",
"^	c #646464",
"/	c #5C5C5C",
"(	c #404040",
"_	c #343434",
":	c #303030",
"                                                ",
" .+++++++@#$.++++++++++++++@ $...%%%%++++&&&**@#",
"#&==-@+&@;#$.-*--*>,*,>*>&@'# +&=&=&'>&=-=@&,&>)",
"#@>@@,'-';#$+--@'@@,@@,@','!#$+@>;-'->-@-@>@!@;)",
"#@>->@'@'~#$*-@-,@''@-,>-@'~ #*@>@;@'@@'-@@@!@{)",
"#>@@@,''!~##*-@''@'',->@'>'! #*@;->-'>@-;@>@>@~)",
"#@'-'>!-'~ $,''{''-{'--'{''~ #*'!'{-{!-{{-;'-'~)",
"#))))))]]] $#)))]]]]))]]])))#$ ))))))))]]]])))))",
"$   ###   # #####  $##  ####$ #$$$^^/$## ($$##$ ",
".++********@##..++++&&&&&**************@($.+++++",
"--@>-;@;-@'~)#+=@>@-@;';->@>;@@;@-'-@@'~#$&>@-@,",
"'@-,@>-,;@'~)#+'-,-;--@-;->;--@->@@'@''~(#&@@@@>",
"@-@->->,;@'~)#+'@>@-@;@;->->;@-@;@-'@@'~ #&>@>,>",
"';'{',''!,'~)$=@-!''-;-!'',;'--,''{',-'~($=>'!,'",
"~{{{{{{{{{~~ $@;;;;;;;;;;!!!!!!!!!!!!!~~# @~;~;~",
"))]))]])))])  # )))))_  _))]]]]))]]]))))#$#)))))",
"$.+++++*************@#$..+++++++**************@#",
"$-=**>*=-==&--=-=;='~ $.*+@=@=-,=>@-'@>-,-@-@!~)",
" =-@@>'@@--@-@'@;-@=~)/+*@;@-',;@;@;@@>@@;@>@>~)",
"#=-@@!'@-'@>->@;-;@!~)/+'',--,';-;@>-->@@;@-@>~)",
"$';@->@@!@@-;@-;;->=~)$+&@'@@-';@!'{@@!@@@-{'-~)",
"#@;''!'''--'''';,','~)$&@,'-''';-'{@!@{'{@!{@'~)",
"# )))))))))))))  )))))##))))))]]]]   ]]]))))))))",
"$$$$# #  #^^$$##(( (  $##$ $$#(( ($$#( (##$$##$ ",
"*******@# ++++++*************@#$&.++++++********",
"@-@,>@-~)#+;@-@>,'@-'-@-;'-@@~ $+@@'@;@->--',>-'",
"-@,>>,@~)#+;@>,@@'@@!@--@',@@~ ^+@@'@@-@>@'-@,@'",
"@>@,,>-~ #+,;>@>,--'-@@-;,'->~ ^+>@'@@@>@>@,,-'-",
"'-,',''~ #,;@!@>@'@@!-@-;',@>~)$&@@'@-@->@'',>@'",
"~{{{{{{~)#@;;;;;;;!!!!!!!!!!~~)#@;;;;;;;;;;;!!!~",
")))))))))##)]]])   ]]]]))))))) ##))) # )]]])))))",
" ++++++****************@  ..++++++************@#",
"$@--;@@,@>'-@@>@@;@@@>@~ $.@;@;!@'!@-,-'->@,'-~)",
"#@;@;@->@;!@,@!--;@@>@,~)#+-;-;!-!>@!;@''@-,@;~)",
" @-@;@-,@>!-@@!-!,@@@@>~)#+@@-;!@'>>!;@>,-,'@-~)",
"$@;-;@;;@;'@;@!-@>-,;-@~]$+@;@;!@!!,!;-''>@,-;~)",
" @;@-'->@--@,->!@{@,>@@~]$&';-;!>@!,';@''@>'@;~)",
" ))))))))  )]]]))]]]))])) #))))]]]_ _])))]])))))",
"$$ $$###$^$#$$#$(  (#$# #$ $######$$$### :]: #$#",
"++++*********#$#.++++++***********@# .++++******",
"@>@>;,>@!>-;-)##>@';'{,>@;-,>-'!@;~_#+;@@'@-@'-{",
"@!>@,;>>!@;,>)#(>>';>>!@{@;@@;---;~)#+;@'@@'-''-",
">!,;@;@@!>;@;)#(@{';@{>,;;->@;@!',~)#+@;@-'@'@'@",
";>>;,;,>!@@;,)##{@';>>{,;{@>@-;!@!~) +;@'!@@'!@{",
">!@;-;>@!@'->)#$@{';@{;@;';@>@;'-;~) &;;@!@@'@@'",
"{{{{{{{{{{{{~)##~~~~{{{{{{{{{{{{{{~]#@~~{{{{{{{{",
"  $  ####$ ###$$$$##$##$# ##(    (( (## ###( (##",
"$$$$$$$$$$$$$$$$$$$$$$$$$$$$$$$$$$$$$$$$$$$$$$$$"};
