/* XPM */
static char * 4_48_xpm[] = {
"48 48 9 1",
" 	c #403018",
".	c #905C34",
"+	c #543C1C",
"@	c #382C14",
"#	c #28200C",
"$	c #483818",
"%	c #6C4824",
"&	c #744C28",
"*	c #5C4020",
"                                                ",
"................................................",
"+++++@+@++++++++++++#@++++#@++++@+@++++++++@+#++",
"$%&&&+.+.*$$$&$%%$$.#+&$&.#+*$$*+.+.$$$&&$&+.#.%",
"$*&&++.+.&$$+&$%%$$.#+%$&.#+&&*&+.+.$$$&&$&+.#.%",
"++%&++.+.&$$*%$%%$$.#+%$&.#+&&&&+.+.$$$&&$&+.#.%",
"%$*&$+.+.&$+%%$%%$$.#+%$&.#+&&&&+.+.$$$&&$%+.#.+",
"&$$+$+.+.&*%&*$%%$$.#+*$&.#+&&&&+.+.$$$&&$*+.#.+",
"&$$$++.+.&%&&+$%%$$.#+$$&.#+&&&&+.+.$$$&&$*+.#.$",
"%$$$&+.+.&%&&+$%%$$.#+$*&.#+%&&&+.+.$$$&&+$+.#.$",
"*&$+&+.+.&&&&$$%%$$.#+$&&.#+*&&%+.+.$$$&&+$+.#.$",
"+&&+*+.+.%&&&$$%%$$.#+*&&.#+$%&*+.+.$$$&&+$+.#.+",
"$&&*++.+.%&&&$$%%$$.#+*&%.#+$*%$+.+.$$$&&*$+.#.+",
"$%&&$+.+.*&&&$$%%$$.#+&&*.#+$$$$+.+.$$$&&%$+.#.%",
"$%&&$+.+.+&&&$+%%$$.#+&%*.#+$$$$+.+.$$$&&%$+.#.%",
"$*&&$+.+.+&&%$+%%$$.#+&%$.#+$$$$+.+.$$$&&%$+.#.%",
"++*+$+.+.$&&*$*%%$$.#+%$$.#+%*$%+.+.$$$&%&$+.#.%",
"+$+$++.+.$%%*$*%%$$.#+*$$.#+&%*&+.+.$$$&%&++.#.%",
"+$$$++.+.$**+$**%$$.#+$$$.#+&&%&+.+.$$$&*&++.#.*",
"%$$$%+.+.$$$$$%+%$$.#+$$+.#+&&&&+.+.$$$&+&*+.#.+",
"%$$$*+.+.$$$$+&$%$$.#+$$+.#+&&&&+.+.$$$&+&%+.#.$",
"*$$$++.+.$$$$*&$%$$.#+$$*.#+%&&&+.+.$$$&+&%+.#.$",
"++$$$+.+.$$$$%&$%$$.#+$+%.#+*&&%+.+.$$$&$&&+.#.$",
"$+$%$+.+.+$$$%&$%$$.#+$*&.#+*%&%+.+.$$$&$%&+.#.$",
"$%+%$+.+.*$$$&%$%$$.#++%&.#+$%&*+.+.$$$&$%&+.#.$",
"$*%*$+.+.&$$+&*$%$$.#+%&&.#+$$%$+.+.$$$&$*&+.#.+",
"$+*+$+.+.&+$+&+$%$$.#+&&&.#+$$*$+.+.$$$&$+&+.#.+",
"$$+$$+.+.&*$*&+$%$$.#+&&%.#+$$$$+.+.$$$&$+&+.#.*",
"$$$$++.+.&&&&%$$%$$.#+&&*.#+$$$$+.+.$$$&$$%+.#.%",
"+$$$++.+.%&&&%$$%$$.#+&%*.#+*$$$+.+.$$$&$$%+.#.%",
"+$$$*+.+.%&&&*$$%$$.#+&%$.#+*$$$+.+.$$$%$$*+.#.+",
"%$$$%+.+.+&&&$$$*$$.#+%*$.#+&*$*+.+.$$$*+$++.#.$",
"%+$+%+.+.$&&&$$+$$$.#+%$$.#+&%*%+.+.$$$*+$++.#.$",
"%+++*+.+.$&&&$$*$$$.#+*$$.#+&&*&+.+.$$$++$++.#.$",
"+%*%++.+.$+%*$$%$$$.#+$$+.#+&&&&+.+.$$$+*+$+.#.$",
"+%*%$+.+.$$++$$&$$$.#+$$+.#+&&&&+.+.$$$+%+$+.#.$",
"$&&&$+.+.+$$$$+&$$$.#+$$*.#+&&&%+.+.$$$$%+$+.#.$",
"$%&&$+.+.*$$$$%&$$$.#+$*&.#+%&&*+.+.$$$$&*++.#.$",
"$%&&$+.+.%$$$$%&$$$.#++%&.#+*&&*+.+.$$$$&%++.#.+",
"$*&%$+.+.&$$$+&%$$$.#+%&&.#+*&&++.+.$$$$&%*+.#.+",
"$+%*$+.+.%+$$%&*$*$.#+&&&.#++%&$+.+.$+$$*&%+.#.*",
"$$**$+.+.%+$$%&$$%$.#+&&&.#+$*%$+.+.$+$$*&%+.#.%",
"$$++$+.+.*%+$&&$$%$.#+&&&.#+$+*$+.+.$+$$+%&+.#.%",
"+$$$++.+.$&&&&*$$&$.#+&&%.#+$$$$+.+.$%$$$*&+.#.&",
"*$$$%+.+.$&&&%$$*&$.#+&&%.#+$$$$+.+.$%+$$+%+.#.&",
"*$$$%+.+.$*%&*$$%&$.#+&%*.#+$$$$+.+.$&+$$$*+.#.&",
"%$$$%+.+.$$$*$$$&&*.#+%*$.#+$$$$+.+.*&*$$$$+.#.&",
"*****+.+.*$$$$$****.#+*$$.#+*$$*+.+.***$$$$+.#.*"};
