/* XPM */
static char * dooropened2_xpm[] = {
"48 48 8 1",
" 	c None",
".	c #E92F63",
"+	c #F5A1B8",
"@	c #EE8A90",
"#	c #B3E0FF",
"$	c #949EAA",
"%	c #6E777E",
"&	c #000000",
".....................      .....................",
".+++++++++++++++++++.      .+++++++++++++++++++.",
".+@@@@@@@@@@@@@@@@@@.      .+@@@@@@@@@@@@@@@@@..",
".+@@@@@@@@@@@@@@@@@@.      .+@@@@@@@@@@@@@@@@@..",
".+@@@@@@@@@@@@@@@@@@.      .+@@@@@@@@@@@@@@@@@..",
".+@@@@@@@@@@@@@@@@@@.      .+@@@@@@@@@@@@@@@@@..",
".+@@@@@@@@@.....@@@@.      .+@@@.....@@@@@@@@@..",
".+@@@@@@@@@.#$%.@@@@.      .+@@@.$%$.@@@@@@@@@..",
".+@@@@@@@@@.$%$.@@@@.      .+@@@.%$$.@@@@@@@@@..",
".+@@@@@@@@@.%$$.@@@@.      .+@@@.$$$.@@@@@@@@@..",
".+@@@@@@@@@.$$$.@@@@.      .+@@@.$$$.@@@@@@@@@..",
".+@@@@@@@@@.$$$.@@@@.      .+@@@.$$$.@@@@@@@@@..",
".+@@@@@@@@@.$$$.@@@@.      .+@@@.$$#.@@@@@@@@@..",
".+@@@@@@@@@.$$#.@@@@.      .+@@@.$#$.@@@@@@@@@..",
".+@@@@@@@@@.$#$.@@@@.      .+@@@.#$%.@@@@@@@@@..",
".+@@@@@@@@@.#$%.@@@@.      .+@@@.$%$.@@@@@@@@@..",
".+@@@@@@@@@.$%$.@@@@.      .+@@@.%$$.@@@@@@@@@..",
".+@@@@@@@@@.%$$.@@@@.      .+@@@.$$$.@@@@@@@@@..",
".+@@@@@@@@@.$$$.@@@@.      .+@@@.$$$.@@@@@@@@@..",
".+@@@@@@@@@.$$$.@@@@.      .+@@@.$$#.@@@@@@@@@..",
".+@@@@@@@@@.$$#.@@@@.      .+@@@.$#$.@@@@@@@@@..",
".+@@@@@@@@@.$#$.@@@@.      .+@@@.#$%.@@@@@@@@@..",
".+@@@@@@@@@.#$%.@@@@.      .+@@@.$%$.@@@@@@@@@..",
".+@@@@@@@@@.$%$.@@@@.      .+@@@.%$$.@@@@@@@@@..",
".+@@@@@@@@@.%$$.@@@@.      .+@@@.$$$.@@@@@@@@@..",
".+@@@@@@@@@.$$$.@@@@.      .+@@@.$$$.@@@@@@@@@..",
".+@@@@@@@@@.$$$.@@@@.      .+@@@.$$$.@@@@@@@@@..",
".+@@@@@@@@@.$$$.&&&@.      .+&&&.$$#.@@@@@@@@@..",
".+@@@@@@@@@.$$#.&&&@.      .+&&&.$#$.@@@@@@@@@..",
".+@@@@@@@@@.$#$.@@@@.      .+@@@.#$%.@@@@@@@@@..",
".+@@@@@@@@@.$%$.@@@@.      .+@@@.%$$.@@@@@@@@@..",
".+@@@@@@@@@.%$$.@@@@.      .+@@@.$$$.@@@@@@@@@..",
".+@@@@@@@@@.$$$.@@@@.      .+@@@.$$$.@@@@@@@@@..",
".+@@@@@@@@@.$$$.@@@@.      .+@@@.$$$.@@@@@@@@@..",
".+@@@@@@@@@.$$$.@@@@.      .+@@@.$$#.@@@@@@@@@..",
".+@@@@@@@@@.$$#.@@@@.      .+@@@.$#$.@@@@@@@@@..",
".+@@@@@@@@@.$#$.@@@@.      .+@@@.#$%.@@@@@@@@@..",
".+@@@@@@@@@.#$%.@@@@.      .+@@@.$%$.@@@@@@@@@..",
".+@@@@@@@@@.$%$.@@@@.      .+@@@.%$$.@@@@@@@@@..",
".+@@@@@@@@@.%$$.@@@@.      .+@@@.$$$.@@@@@@@@@..",
".+@@@@@@@@@.$$$.@@@@.      .+@@@.$$$.@@@@@@@@@..",
".+@@@@@@@@@.....@@@@.      .+@@@.....@@@@@@@@@..",
".+@@@@@@@@@@@@@@@@@@.      .+@@@@@@@@@@@@@@@@@..",
".+@@@@@@@@@@@@@@@@@@.      .+@@@@@@@@@@@@@@@@@..",
".+@@@@@@@@@@@@@@@@@@.      .+@@@@@@@@@@@@@@@@@..",
".+@@@@@@@@@@@@@@@@@@.      .+@@@@@@@@@@@@@@@@@..",
".+...................      .+...................",
".....................      ....................."};
