/* XPM */
static char * floor_xpm[] = {
"60 60 89 1",
" 	c #9A9792",
".	c #9B9893",
"+	c #999691",
"@	c #989590",
"#	c #989594",
"$	c #979492",
"%	c #97948E",
"&	c #97948F",
"*	c #96938E",
"=	c #94918C",
"-	c #95928D",
";	c #93908B",
">	c #989591",
",	c #979493",
"'	c #979491",
")	c #98958F",
"!	c #989592",
"~	c #989593",
"{	c #999693",
"]	c #9C9994",
"^	c #989694",
"/	c #979490",
"(	c #989692",
"_	c #979594",
":	c #989595",
"<	c #928F8A",
"[	c #918E89",
"}	c #908D88",
"|	c #8F8C87",
"1	c #8E8B86",
"2	c #969390",
"3	c #95928E",
"4	c #969491",
"5	c #979593",
"6	c #969391",
"7	c #969392",
"8	c #8D8A85",
"9	c #8C8984",
"0	c #94928F",
"a	c #949290",
"b	c #918E8A",
"c	c #93908C",
"d	c #94918E",
"e	c #93908F",
"f	c #908D89",
"g	c #93908D",
"h	c #93908E",
"i	c #928F8B",
"j	c #949292",
"k	c #95928C",
"l	c #94918F",
"m	c #949190",
"n	c #96938F",
"o	c #8B8883",
"p	c #959291",
"q	c #928F8E",
"r	c #918E8D",
"s	c #918E8C",
"t	c #918E88",
"u	c #928F8D",
"v	c #928F8F",
"w	c #8E8B85",
"x	c #928F8C",
"y	c #908D8B",
"z	c #8F8C89",
"A	c #93908A",
"B	c #8F8C88",
"C	c #918E8B",
"D	c #908E8C",
"E	c #8E8B87",
"F	c #8C8986",
"G	c #8F8C8B",
"H	c #8E8B88",
"I	c #8A8782",
"J	c #8D8A86",
"K	c #8F8C8A",
"L	c #898681",
"M	c #908D8C",
"N	c #8F8D8A",
"O	c #888580",
"P	c #87847F",
"Q	c #86837E",
"R	c #908E8B",
"S	c #85827D",
"T	c #908D8D",
"U	c #8B8884",
"V	c #8C8985",
"W	c #8D8A89",
"X	c #898682",
" .+@+.. +#$%&@+@&&&@+ +@*=*@+++@@@ +@&**&@+@&&*---***=;;;===",
" .+@@+ +@>,'&@@@&&&@@++@&&&&@@@@@@ +@&*&&@+@@&-==-***=======",
" .+&&@@@@)!~>@@@@&*&@++++ +@&@@+++ ++@&&&@@@&*-==--**--==--=",
" .+&*&*&@@@{#&&@@&*&@+++ .+@&@+++@@@++@@@&****-------*-==---",
" ] &**-*@++{^/*@@&**@+++  +@@  +&--*&@+@&-==--**--===-===---",
" . @*-=*&+ +(_*++&*&@++++@@@+  @-;;=*&@&*=;;--***--=;=;;;===",
"&@&*=;;=*&@@!:/  @@+... &--****--;<<=*&&*=;-****----=<<[[}||",
"***=<<;=-**%':/++@&@+  @*------==;[<;=---;;==========<<[}||1",
"-==;[[=====-2_/@@&*&@@@&*----==;<[[<<<;;;;;;;;;;;<;;<<[[}||1",
"===;[<--====345/&***&&&**---==;<[[<;<<[<<;;;;;;<<<[[[[[}}||1",
"---=<;**--=-*&~~/&&&*****---=;<<[[==;<[<<;==;;;<<[[[}}}}|||1",
"-**-;=&***-*&&@~~'&&*-***---==;<[[==;<<<<;===;;<<[[}}}}|||11",
"*&&*==&&&***&***$~>*===-------=;<<==;<<<<;;;;;<[[}}||||||111",
"*&&*==***&***----$,-;<<;=------==;=;;<<[[<<<<<[}}|111||11111",
"--*-===-***--=;;=67;<}[<=--**----=<<<<[[}}}}[[}|188981111111",
"<;;;=-*----=;;;;;0ab}}[;=-=;;<;==-;;;<<[}}||||11111||}}|1188",
"<;;=-**---==;;;;;cdef[<=-=;;<;;-*-;;<<<[}|||||1111|||||11111",
";==*&&*---==;;;<;;cghi;--;;<<;=*&&;;<<[[}||||118811||1188111",
";=-*@&*---==;;;<;;;cjck&*=;;;;=-&&;;<[[}||||1188881111188811",
";==****---==;;;<;;;cll*&&-==;;;=--;<<<[}|||1118888111|118888",
";;;==-*---==;;;<;;;<<l2/&*-=<[[<<<<<<[}}||1118888881|}|18999",
"<<<;;-*---==;;;<;;;<[<m6n-=;[}}}[[<<[}}}|111888998881||1899o",
"[[<;=-*---==;;;;;;;[}[ipp;<[}|}}}[<<[}}||1188899998881189999",
"}[<;=-*----=;;;;;;<[}}[ml[}||||}[<<[[[}|11188899998888999998",
"}||[=-****-=;<[|1}[[[}}qr|}[[|||}[}}}}[[}|18888888888o999999",
"}1|[;======;;<[11|}[[[}qs|}[}|11|}}|||}}}1888888888889999999",
"|1|}<;;;;<<<<<[|||}[[[[bss}}}|11||}|181||1888888888889999999",
"|||}[<<<[[[[<;;}|}[[[[[tuv}}|1w11|}|888111188888888889999999",
"|||}}[<<[[[[<==[}[[[[[[<xuussyyz11[}188111118888888889999999",
"}[[}}}<<[[[<<==<[[[[[<<;AieqqqqsB1[}1811||11111111111888999o",
"[<<[}}[[[[[<<;;<<<<[<<;==;[}}}}CDB}|111|||11111111111888999o",
"<==<}|}}[[[[[[[;;<<[<;=--=;[}[[}frf1881||898111111111188999o",
";=-;[|1|}[[[}||;;;<[<;=---;[[[<[|ErE981119o8111111111118999o",
"[<<[[|81}<;;<[}<;;;;;;;==;[}}}}19oFGH1|||181}|||||||18899ooo",
"|}}}}181}<;;<[[[<<<<<<<<<<[}|||8oIIFGz111881|11111111899ooII",
"||||111|}[[<[<<[[[[[[[[[[[}|||18oIooJGryJ998888888888999oIII",
"111181}}}}}[[<<[[[[[[[[}}}||1|18oIoo9HyyK89888888999oooooIIL",
"111891[}}||}[<<<<[[[[[[}}}|11|189o88888EMN1118889999ooooIILO",
"111181<[}|||}<;;;<<<[[[[[}|1|||189|||111EsyB|118899ooIIIILOP",
"1|||1|<[}||}}[<;;;<<<[[}}[}||}}|18}}|1111|rCB11899ooILLILLOQ",
"|}}}|}[[}}}}}}[<<<<[}}||}[[}}[[}|1}}|18881|sREJ9oILLLOLLLLPS",
"}[[[}}[[[[}}}}}[[[[}|111}<[[[[<[|1}||8999811KTG9ILLOOOOLLOPS",
"|||}[}||}}}}}||}}|19o91}}}}||}}}}}|||188999oUVFWXPOLIIIOOPQQ",
"1||}[[||}}}}}|||||18991}}|||||}[[[}|||1899oIIIIUOPOIIILOPPPP",
"11}[<<||}}}}}||11|}}|||}}||||}[<;;}}||18899oooILOOLIoOPPPPOO",
"81|[<<||}}}}}||11}[[}}[<[}}}}[<<;;}}|118899999oILOIooOOPPOOL",
"811|[}||}}}}}||||}[}|}<;;<<[[[[<<<[}}|118999889oILI99ILOOOLL",
"88881|||}}}}}||[[[}|1}<--;;<[[[[[[[}}}|18898889oIII98oILLLLL",
"999811||}}}}}||[[[|18|<--;;<[}||||[[}||11888889oLLI989oIIILL",
"o99811||}}}}}||[[[}|11}<;<<[}|||||[[}}||1889999ILLIo9IIIIIIo",
"o981||||}}}}}|||}}[}|||}}}}|||||}}[[}}}|188999oIOOLooLLLIIo9",
"Io98|}[[[<<[}|1111|}}}|81|}}|11|[<<[[[<<[|8oILLLLLLLLOOOLLIo",
"LIo81|[[[[[[}||111|}[[}11|}}|181[<[[}}[[[|8oLLOOLILLOOOOOLLL",
"LIo981}}}}}}|}}}|||}<<[}||}}|181}[}|1111119oILOLIIILOOOOOOOL",
"LIoo98111111|}}}|||}[[[}|||||181|}}18998889oILLLIoIILOOOOOOO",
"IIooo9188881|}[}|11|}[}}|||||1111|}|89998999oILIoooILOOOOOOO",
"ooooo9889981|}[[}||}}[[[}}}|||||11}}188888899oIIo99oIOOOOOOO",
"999oo9888811|}}<<[[[<;;;<[}}}[[}11}}|11111899oIo9899oIILLLLL",
"1889o9881|||}}};;<[[<===;;<[[<<[11}|111||89999oo8899ooooIIII",
"|189o981|}}}}||<<}|}[<;;;;<[<;;<|811111|19o989o98899o999oooI"};
