/* XPM */
static char * purplebrick_xpm[] = {
"64 64 26 1",
" 	c #383838",
".	c #545454",
"+	c #484848",
"@	c #DD498E",
"#	c #C5498E",
"$	c #95498E",
"%	c #D1498E",
"&	c #B9498E",
"*	c #AD498E",
"=	c #A1498E",
"-	c #79498E",
";	c #55498E",
">	c #2C2C2C",
",	c #6D498E",
"'	c #89498E",
")	c #61498E",
"!	c #49498E",
"~	c #31498E",
"{	c #3D498E",
"]	c #202020",
"^	c #5C5C5C",
"/	c #646464",
"(	c #404040",
"_	c #343434",
":	c #4C4C4C",
"<	c #303030",
"                                                                ",
". .+++++.++++++.+ +++++++......+++++++++.......++++   ++..+++++ ",
" @@#########$++.@@##################$+ .@@@@%%%%%%#####&&&&***$+",
"+@&==#-$#-&$;>+.@*-*-*-*,*'*'*,*,*&$)>+ #$&=&==&)&,&=&-=$,&'&$,>",
"+#$,$-$')$-);>+.#*--$-)$$)'$$)'$)$')!>+.#$$,;$-)-$,-$$-$,-$!$);>",
"+#,$$)'$$)$!~>+.#-*$-$)$-$)$)-,$)',)!>++#)$;-$;$)$,$-$;$',$,$){>",
"+&$,-',$)-$)~>+.**-$--'$)-)$-)',-)$)~> +*)$,$-;$))$$)$-$$,$!$-{>",
"+*,$$)$')')!~>++*&-$)$)$)$)'-),$)',)!> +*'$;-$,-)-,$-$;$,-$,$)~>",
"+*$)-!),!)-)~> .'')){-))-){)-)-){-))~> +*))!)){-{)!-{){-;{)-)-~>",
"+,;;;~~~~~~~~> +,;;!!!!!!!!!~~~~~~~~~> +-;;;;;;;;;;!!!!!!!!!~~~>",
"++>>>>>>>>]]]> .+>>>>>]]]]]>>]]]]>>>>>+. >>>>>>>>>>>]]]]]>>>>>>>",
".    ++++     + +++++++   .+++  ++++++. +....^//^..++( (. .+++. ",
"@###***********$+.+@@######&&&&&&&******************$+(.@@######",
"=--=',=,'-=;=-$~ +.@)=&,*;-*--&'$-,-$-$-$,&;&-'*&'&$~ + @&,=-=-=",
"-$-$,--;$-;-$$)~>++#=)$,$$-$;$);-$,$,$;$$-;$-$)-$)$)~ +.&=,$-,$'",
")$$-';$,--';$-)~> +#)$-'--;--)$-;$-,;,--$!-,$)$)$$))~>(+&,$$$,$,",
"$--$-,,-,$';$;)~> +#)$$,$;-$;)$;-$,-,$;$-!$;$)-)$)$)~> +&=,$,$',",
")$;$)-,';$;-$$)~>+.#=!$,$-;-!-);$-,!,$;-!-$;-$)-$)$)~] +=,$$!$,-",
")=;){,)')')!'))~>+.=$)-!)')-;)-!)')';-)--!'))-{)')-)~](.=$,)!)')",
"~{{{{{{{{{{{{~~~ +.$;;;;;;;;;;;;;!!!!!!!!!!!!!!!!!!~~]+ $;~;~~;~",
">>>]>>>]]]>>>]]> + + _>>>>>>__  _>>>]]]]]>>>]]]]>>>>> +.+>>>>>>>",
"..+  +. . ++    ++.+++( ( ( (+++. .+(   ((++.(  (+++.+. .( (.+++",
".@@#######*****************$+..@@##########*******************$+",
".@-=*,*,*,=-=-=&-=-=-*=;=&)~ +.@*)#$=-$=-='=,;$-)-$,-$'-$,-$!$~>",
" @=-$'$,)-$$-'-$-;$)$-;-$)=~>+^#*'$;$;-)'-;$;-$;$)$,$-$;$',$,)~>",
"+*;$$)-!$;$)$-'$;-$)-$-;,$)~>./#*,$,$;$)'$,$,$-;$))$')'-$$,$!)~>",
"+*=-${$!)-$-),$,-;,$;$-;$)!~>.^#)$)'-;-')$;-;-$,-)-,$-$;$,-$,)~>",
".*);${-,$;$!$;$-;-$-;$;-,,=~>+.#&)$)$-$-)$;$!)){${$!${$$-;{)-)~>",
"+&$;)))!){))-;-))-));)')'))~> .&$)')-!))));-)-{$!)${)-{$!${$))~>",
"+$';;;;;;;;;;;;;;{{{{{{{{{~~> .$;;;;;;;;;;;;;;!!!!!!!!!!!!~!,!~>",
"++ >>>>>>>>>>>>>>>>>   >>>>>>+++>>>>>>>>]]]]]>   >]]]>>>>>>>>>>>",
".....++ +   +.//...+++((  (  (.+++. .+.+( ( (+..++( (+++. .+++. ",
"**********$+ .########*****************$+..&@#########**********",
"$=$='&==&$~ + #$;$)$$;$-$$)$-;$$;$$)$,$~ +.#$,$)$$;$,-,$)$-$,$)$",
"$,-$'$,$-)~>+.#;$,-$,$')$--)--$-;$)-$;$~ ..#$!$)$-;$-$,--')','-)",
"-,$',$,'$)~>+ #;$$,'$)$)$-$!${--$-)'$,$~ ./#$,$)$-$-$$,$)'-$',$)",
"$-,$'$',-)~ +.#';$,$,!'---)-$;$-;-')-$,~ ./#,$$)$;$$,,$,$-''-,)-",
"$-,$,$,'$)~ ++#;$,!'$)--$-$)-{;';$')$,$~ +.&$,$$)$--,$,$)'-$,-$)",
"))-'))')))~ ++';$$!$,)$)$;$!-;$-;')'$;,~>+.&$!$)$$-$-$,$)')',$$)",
"~~{{{{{{{~~>++$;;;;;;;;;!!!!!!!!!!!!!!~~>++$;;;;;;;;;;;;;;;!!!!~",
">>>>>>>>>>>>+.+>]]]]>>   >]]]]]>>>>>>>>> +++>>>>  + >>]]]>>>>>>>",
".+. +  ++    ++   +++++..++   .+++. + + ++.+. .+.^/.:++ .+.+. . ",
" @#######**********************$ . @@########*****************$+",
".#$--$;$$,'$,$)-$;$,$-$;$;$$,)$~ +.@$$;$;$!$)$!$-!'-)$-,$,')-$~>",
"+#$;$-;$-',$;-!$';$!-'-;$,$,$)'~>++#-$;-;,!-!',$!$;$)-)$-,'$;-~>",
"+#-;$;-);$;$-,-$;'--!,${'!-;--)~> +#-$;;-$,!$,!'$!$))$)$,$)-;$~>",
" #$-$-;$-,'$,$!-$;$!-$!'$,$$$),~> +#$;$-;$!$)',,!-;$,-'-',)$-$~>",
".#$;-$;$;$;$;$)$;;$!-,$,-;';-)$~] .#$;;$;,!$!$!'!$;-)$),$,'-;)~>",
" &$;$;-)-',$---$';-,!;${$)',$)$~] .&)$;-;$!,$,!')-;$)$)$,')$;$~>",
".$;;;;;;;;;{{{{{{{{{{{{{{{{{{{{~>+.$;;;;;;;;;!!!!!{{{{{{{{{{{~~>",
" +>>>>>>>>>>   >]]]]>>>]]]]>>]]>>+ +>>>>>>]]]>_ _>]>>>>]]]>>>>>>",
". . .+.++++.//.+. .+.+(   (+.++ ++. .++++++++:...:++++ <]]< ++.+",
"#####************$+.+@@########***************$+ .@#####********",
",$!$$;';$,&,$;$,$~>++#$$$$;${$,$;$;$'$;$;$!$);~ +.#$;-$!$)$)$;$)",
"$,,$,$;',;$!,;-;-~>++#,$)$;){,',$-;-';,-)-!$;$~_+.#;$!$)$)-$)$-{",
"$,!,$;';,$,!$-;',~>+(#,,)$;,,$!${$$;$;$;-!--;)~>+.#;$))$$-)-);)-",
",'!';;$;$,$!,);$;~>+(#${)$;${$,';$;-,;$;$-!)';~>+.#$;!$-))$)$;)$",
";$,$;$;-$;$,!-$,-~>+(#{$$;$,)-!,{$;$;,,;-)!-);~>++#;$-$)$-))!$)$",
";$,,;'';';,!$;$;'~>++#{$)$;,,-{';-{$,;$-;$!$!-~> +#;$!)!$)$)!;${",
",'!$;;-;,,$!$;)-,~>+.&${)$;${-;$;$);$;,$;-)-;-~> +&;;!$!$)$)$;$)",
"{{{{{{{{{{{{{{{{~~>++$~~~~~{{{{{{{{{{{{{{{{{{~~]+.$~~{{{{{{{{{{{",
">>>>>>>>>>>>>>>>>>>+.+ __>>>>>>>>>>>>>>]]]]]>]]] ++>>>>>>]]]]]>>",
" . .   +++++.. ++++.....+++.+++.++ +++(  (  (+( (.++ .++++( (+++",
"................................................................"};
