/* XPM */
static char * wall_02_xpm[] = {
"48 48 14 1",
" 	c #6A4037",
".	c #B86F50",
"+	c #925443",
"@	c #5E3536",
"#	c #533034",
"$	c #6A3C38",
"%	c #73403A",
"&	c #81483E",
"*	c #7F463C",
"=	c #7A453C",
"-	c #78413A",
";	c #6B3B38",
">	c #733E39",
",	c #955644",
"                                                ",
"                                                ",
"                                                ",
"         ......+++            .........         ",
"         ......+++            .........         ",
"         ......+++            .........         ",
"      ...@@@@@@@@@+++######...@@@@@@@@@...      ",
"      ...@@@@@@@@@+++######...@@@@@@@@@...      ",
"      ...@@@@@@@@@+++######...@@@@@@@@@...      ",
"   ...@@@$$$%%%%%%@@@&&&...@@@%%%%%%$$$@@@...   ",
"   ...@@@$$$%%%%%%@@@&&&...@@@%%%%%%$$$@@@...   ",
"   ...@@@$$$%%%%%%@@@&&&...@@@%%%%%%$$$@@@...   ",
"   ...@@@%%%******===@@@@@@===******%%%@@@...   ",
"   ...@@@%%%******===@@@@@@===******%%%@@@...   ",
"   ...@@@%%%******===@@@@@@===******%%%@@@...   ",
"   +++@@@******######======######***---@@@+++   ",
"   +++@@@******######======######***---@@@+++   ",
"   +++@@@******######======######***---@@@+++   ",
"   +++@@@***###@@@@@@######@@@@@@###***@@@+++   ",
"   +++@@@***###@@@@@@######@@@@@@###***@@@+++   ",
"   +++@@@***###@@@@@@######@@@@@@###***@@@+++   ",
"   +++@@@***@@@;;;>>>@@@@@@>>>;;;@@@***@@@...   ",
"   +++@@@***@@@;;;>>>@@@@@@>>>;;;@@@***@@@...   ",
"   +++@@@***@@@;;;>>>@@@@@@>>>;;;@@@***@@@...   ",
"   ,,,@@@===@@@;;;>>>>>>>>>>>>;;;@@@===@@@...   ",
"   ,,,@@@===@@@;;;>>>>>>>>>>>>;;;@@@===@@@...   ",
"   ,,,@@@===@@@;;;>>>>>>>>>>>>;;;@@@===@@@...   ",
"      +++@@@***@@@;;;>>>>>>;;;@@@***@@@...      ",
"      +++@@@***@@@;;;>>>>>>;;;@@@***@@@...      ",
"      +++@@@***@@@;;;>>>>>>;;;@@@***@@@...      ",
"         +++@@@***@@@;;;;;;@@@***@@@+++         ",
"         +++@@@***@@@;;;;;;@@@***@@@+++         ",
"         +++@@@***@@@;;;;;;@@@***@@@+++         ",
"            +++@@@***@@@@@@***@@@+++            ",
"            +++@@@***@@@@@@***@@@+++            ",
"            +++@@@***@@@@@@***@@@+++            ",
"               ...@@@======@@@+++               ",
"               ...@@@======@@@+++               ",
"               ...@@@======@@@+++               ",
"                  ...@@@@@@+++                  ",
"                  ...@@@@@@+++                  ",
"                  ...@@@@@@+++                  ",
"                     ...+++                     ",
"                     ...+++                     ",
"                     ...+++                     ",
"                                                ",
"                                                ",
"                                                "};
