/* XPM */
static char * wall_01_xpm[] = {
"48 48 7 1",
" 	c #271C2A",
".	c #83718A",
"+	c #A5B5AE",
"@	c #66546D",
"#	c #504156",
"$	c #85948D",
"%	c #67756E",
"                                                ",
" ..........  ++++++++++  ..........  ++++++++++ ",
" .@@@@@@@@#  +$$$$$$$$%  .@@@@@@@@#  +$$$$$$$$% ",
" .@@@@@@@@#  +$$$$$$$$%  .@@@@@@@@#  +$$$$$$$$% ",
" .@@@@@@@@#  +$$$$$$$$%  .@@@@@@@@#  +$$$$$$$$% ",
" .@@@@@@@@#  +$$$$$$$$%  .@@@@@@@@#  +$$$$$$$$% ",
" .@@@@@@@@#  +$$$$$$$$%  .@@@@@@@@#  +$$$$$$$$% ",
" ##########  %%%%%%%%%%  ##########  %%%%%%%%%% ",
"                                                ",
" ++++++++++  ..........  ++++++++++  .......... ",
" +$$$$$$$$%  .@@@@@@@@#  +$$$$$$$$%  .@@@@@@@@# ",
" +$$$$$$$$%  .@@@@@@@@#  +$$$$$$$$%  .@@@@@@@@# ",
" +$$$$$$$$%  .@@@@@@@@#  +$$$$$$$$%  .@@@@@@@@# ",
" +$$$$$$$$%  .@@@@@@@@#  +$$$$$$$$%  .@@@@@@@@# ",
" +$$$$$$$$%  .@@@@@@@@#  +$$$$$$$$%  .@@@@@@@@# ",
" %%%%%%%%%%  ##########  %%%%%%%%%%  ########## ",
"                                                ",
" ..........  ++++++++++  ..........  ++++++++++ ",
" .@@@@@@@@#  +$$$$$$$$%  .@@@@@@@@#  +$$$$$$$$% ",
" .@@@@@@@@#  +$$$$$$$$%  .@@@@@@@@#  +$$$$$$$$% ",
" .@@@@@@@@#  +$$$$$$$$%  .@@@@@@@@#  +$$$$$$$$% ",
" .@@@@@@@@#  +$$$$$$$$%  .@@@@@@@@#  +$$$$$$$$% ",
" .@@@@@@@@#  +$$$$$$$$%  .@@@@@@@@#  +$$$$$$$$% ",
" ##########  %%%%%%%%%%  ##########  %%%%%%%%%% ",
"                                                ",
" ++++++++++  ..........  ++++++++++  .......... ",
" +$$$$$$$$%  .@@@@@@@@#  +$$$$$$$$%  .@@@@@@@@# ",
" +$$$$$$$$%  .@@@@@@@@#  +$$$$$$$$%  .@@@@@@@@# ",
" +$$$$$$$$%  .@@@@@@@@#  +$$$$$$$$%  .@@@@@@@@# ",
" +$$$$$$$$%  .@@@@@@@@#  +$$$$$$$$%  .@@@@@@@@# ",
" +$$$$$$$$%  .@@@@@@@@#  +$$$$$$$$%  .@@@@@@@@# ",
" %%%%%%%%%%  ##########  %%%%%%%%%%  ########## ",
"                                                ",
" ..........  ++++++++++  ..........  ++++++++++ ",
" .@@@@@@@@#  +$$$$$$$$%  .@@@@@@@@#  +$$$$$$$$% ",
" .@@@@@@@@#  +$$$$$$$$%  .@@@@@@@@#  +$$$$$$$$% ",
" .@@@@@@@@#  +$$$$$$$$%  .@@@@@@@@#  +$$$$$$$$% ",
" .@@@@@@@@#  +$$$$$$$$%  .@@@@@@@@#  +$$$$$$$$% ",
" .@@@@@@@@#  +$$$$$$$$%  .@@@@@@@@#  +$$$$$$$$% ",
" ##########  %%%%%%%%%%  ##########  %%%%%%%%%% ",
"                                                ",
" ++++++++++  ..........  ++++++++++  .......... ",
" +$$$$$$$$%  .@@@@@@@@#  +$$$$$$$$%  .@@@@@@@@# ",
" +$$$$$$$$%  .@@@@@@@@#  +$$$$$$$$%  .@@@@@@@@# ",
" +$$$$$$$$%  .@@@@@@@@#  +$$$$$$$$%  .@@@@@@@@# ",
" +$$$$$$$$%  .@@@@@@@@#  +$$$$$$$$%  .@@@@@@@@# ",
" +$$$$$$$$%  .@@@@@@@@#  +$$$$$$$$%  .@@@@@@@@# ",
" %%%%%%%%%%  ##########  %%%%%%%%%%  ########## "};
